
<svg width="130" height="106" viewBox="0 0 130 106" fill="none" xmlns="http://www.w3.org/2000/svg">
<ellipse cx="6.5" cy="7.77357" rx="6.5" ry="7.16981" fill="#FDF00F"/>
<ellipse cx="35.75" cy="7.77354" rx="6.5" ry="7.16981" fill="#FDF00F"/>
<ellipse cx="65" cy="7.77354" rx="6.5" ry="7.16981" fill="#FDF00F"/>
<ellipse cx="94.25" cy="7.77354" rx="6.5" ry="7.16981" fill="#FDF00F"/>
<ellipse cx="123.5" cy="7.77354" rx="6.5" ry="7.16981" fill="#FDF00F"/>
<ellipse cx="6.5" cy="54.3774" rx="6.5" ry="7.16981" fill="#FDF00F"/>
<ellipse cx="35.75" cy="54.3774" rx="6.5" ry="7.16981" fill="#FDF00F"/>
<ellipse cx="65" cy="54.3774" rx="6.5" ry="7.16981" fill="#FDF00F"/>
<ellipse cx="94.25" cy="54.3774" rx="6.5" ry="7.16981" fill="#FDF00F"/>
<ellipse cx="123.5" cy="54.3774" rx="6.5" ry="7.16981" fill="#FDF00F"/>
<ellipse cx="6.5" cy="98.8302" rx="6.5" ry="7.16981" fill="#FDF00F"/>
<ellipse cx="35.75" cy="98.8302" rx="6.5" ry="7.16981" fill="#FDF00F"/>
<ellipse cx="65" cy="98.8302" rx="6.5" ry="7.16981" fill="#FDF00F"/>
<ellipse cx="94.25" cy="98.8302" rx="6.5" ry="7.16981" fill="#FDF00F"/>
<ellipse cx="123.5" cy="98.8302" rx="6.5" ry="7.16981" fill="#FDF00F"/>
</svg>
