<svg width="1067" height="56" viewBox="0 0 1067 56" fill="none" xmlns="http://www.w3.org/2000/svg">
<g clip-path="url(#clip0_0_1)">
<path d="M23.3334 48.2222C23.3334 51.6584 22.1029 54.4445 18.6667 54.4445H7.77781C1.55559 54.4445 1.55559 32.6667 7.77781 32.6667H18.6667C22.1029 32.6667 23.3334 35.4527 23.3334 38.8889V48.2222Z" fill="#553788"/>
<path d="M52.8889 51.3333H51.3333V35.7778H52.8889C53.3014 35.7778 53.6971 35.6139 53.9888 35.3222C54.2805 35.0304 54.4444 34.6348 54.4444 34.2222C54.4444 33.8097 54.2805 33.414 53.9888 33.1223C53.6971 32.8306 53.3014 32.6667 52.8889 32.6667H15.5555C9.3333 32.6667 9.3333 54.4445 15.5555 54.4445H52.8889C53.3014 54.4445 53.6971 54.2806 53.9888 53.9888C54.2805 53.6971 54.4444 53.3015 54.4444 52.8889C54.4444 52.4763 54.2805 52.0807 53.9888 51.7889C53.6971 51.4972 53.3014 51.3333 52.8889 51.3333Z" fill="#9266CC"/>
<path d="M53.1564 51.3333H17.1111C14 51.3333 14 35.7778 17.1111 35.7778H53.1564C54.8738 35.7778 54.8738 51.3333 53.1564 51.3333Z" fill="#CCD6DD"/>
<path d="M17.8889 38.8889H54.2111C54.0011 37.0611 53.6511 35.7778 53.1564 35.7778H17.1111C14.5429 35.7778 14.0964 46.368 15.7686 50.0702C15.1589 45.4673 15.8651 38.8889 17.8889 38.8889Z" fill="#99AAB5"/>
<path d="M18.6667 12.4444C18.6667 14.0947 18.0111 15.6773 16.8442 16.8442C15.6773 18.0111 14.0947 18.6667 12.4444 18.6667H6.22221C-1.37091e-05 18.6667 -1.37091e-05 1.55554 6.22221 1.55554H12.4444C14.0947 1.55554 15.6773 2.2111 16.8442 3.37799C18.0111 4.54488 18.6667 6.12753 18.6667 7.77776V12.4444Z" fill="#226699"/>
<path d="M48.2222 15.5555H46.6667V4.66665H48.2222C48.6348 4.66665 49.0305 4.50276 49.3222 4.21104C49.6139 3.91932 49.7778 3.52366 49.7778 3.1111C49.7778 2.69854 49.6139 2.30288 49.3222 2.01115C49.0305 1.71943 48.6348 1.55554 48.2222 1.55554H10.8889C4.66667 1.55554 4.66667 18.6667 10.8889 18.6667H48.2222C48.6348 18.6667 49.0305 18.5028 49.3222 18.211C49.6139 17.9193 49.7778 17.5237 49.7778 17.1111C49.7778 16.6985 49.6139 16.3029 49.3222 16.0112C49.0305 15.7194 48.6348 15.5555 48.2222 15.5555Z" fill="#55ACEE"/>
<path d="M48.4898 15.5555H12.4445C9.33337 15.5555 9.33337 4.66666 12.4445 4.66666H48.4898C50.2071 4.66666 50.2071 15.5555 48.4898 15.5555Z" fill="#CCD6DD"/>
<path d="M12.4444 7.77777H49.6611C49.4838 6.02777 49.0949 4.66666 48.4898 4.66666H12.4444C10.5887 4.66666 9.84822 8.53843 10.2076 11.6667C10.4502 9.55421 11.1891 7.77777 12.4444 7.77777Z" fill="#99AAB5"/>
<path d="M31.1111 26.4444C31.1111 28.0947 30.4556 29.6773 29.2887 30.8442C28.1218 32.0111 26.5391 32.6667 24.8889 32.6667H9.33335C3.11113 32.6667 3.11113 18.6667 9.33335 18.6667H24.8889C26.5391 18.6667 28.1218 19.3222 29.2887 20.4891C30.4556 21.656 31.1111 23.2387 31.1111 24.8889V26.4444Z" fill="#F4900C"/>
<path d="M54.4445 29.5556H52.8889V21.7778H54.4445C54.857 21.7778 55.2527 21.6139 55.5444 21.3222C55.8361 21.0304 56 20.6348 56 20.2222C56 19.8097 55.8361 19.414 55.5444 19.1223C55.2527 18.8306 54.857 18.6667 54.4445 18.6667H23.3334C17.1111 18.6667 17.1111 32.6667 23.3334 32.6667H54.4445C54.857 32.6667 55.2527 32.5028 55.5444 32.2111C55.8361 31.9193 56 31.5237 56 31.1111C56 30.6986 55.8361 30.3029 55.5444 30.0112C55.2527 29.7194 54.857 29.5556 54.4445 29.5556Z" fill="#FFAC33"/>
<path d="M54.712 29.5556H24.8889C21.7778 29.5556 21.7778 21.7778 24.8889 21.7778H54.712C56.4293 21.7778 56.4293 29.5556 54.712 29.5556Z" fill="#CCD6DD"/>
<path d="M24.8889 24.8889H55.9751C55.874 23.2369 55.4555 21.7778 54.712 21.7778H24.8889C22.9071 21.7778 22.1931 24.9309 22.7375 27.2222C23.0455 25.9171 23.7595 24.8889 24.8889 24.8889Z" fill="#99AAB5"/>
</g>
<path d="M79.92 10L75.44 24H70.38L68.12 16.52L65.74 24H60.68L56.2 10H61.06L63.5 17.96L66.08 10H70.42L72.86 18.06L75.44 10H79.92ZM91.6673 18.52C91.6673 18.5867 91.6473 18.94 91.6073 19.58H84.0073C84.1673 19.9933 84.434 20.3133 84.8073 20.54C85.1807 20.7533 85.6473 20.86 86.2073 20.86C86.6873 20.86 87.0873 20.8 87.4073 20.68C87.7407 20.56 88.1007 20.3533 88.4873 20.06L90.8473 22.44C89.7807 23.6133 88.1873 24.2 86.0673 24.2C84.7473 24.2 83.5873 23.96 82.5873 23.48C81.5873 22.9867 80.814 22.3067 80.2673 21.44C79.7207 20.5733 79.4473 19.6 79.4473 18.52C79.4473 17.4267 79.714 16.4533 80.2473 15.6C80.794 14.7333 81.534 14.06 82.4673 13.58C83.414 13.1 84.474 12.86 85.6473 12.86C86.754 12.86 87.7607 13.08 88.6673 13.52C89.5873 13.96 90.314 14.6067 90.8473 15.46C91.394 16.3133 91.6673 17.3333 91.6673 18.52ZM85.6873 15.94C85.2207 15.94 84.834 16.0667 84.5273 16.32C84.2207 16.5733 84.0207 16.9333 83.9273 17.4H87.4473C87.354 16.9467 87.154 16.5933 86.8473 16.34C86.5407 16.0733 86.154 15.94 85.6873 15.94ZM63.14 44.48H61.86V48H57.14V34H63.88C65.1733 34 66.3 34.2133 67.26 34.64C68.22 35.0667 68.96 35.68 69.48 36.48C70 37.28 70.26 38.2133 70.26 39.28C70.26 40.28 70.0333 41.1533 69.58 41.9C69.1267 42.6467 68.4733 43.24 67.62 43.68L70.56 48H65.52L63.14 44.48ZM65.5 39.28C65.5 38.76 65.34 38.36 65.02 38.08C64.7 37.7867 64.22 37.64 63.58 37.64H61.86V40.92H63.58C64.22 40.92 64.7 40.78 65.02 40.5C65.34 40.2067 65.5 39.8 65.5 39.28ZM83.5423 42.52C83.5423 42.5867 83.5223 42.94 83.4823 43.58H75.8823C76.0423 43.9933 76.309 44.3133 76.6823 44.54C77.0557 44.7533 77.5223 44.86 78.0823 44.86C78.5623 44.86 78.9623 44.8 79.2823 44.68C79.6157 44.56 79.9757 44.3533 80.3623 44.06L82.7223 46.44C81.6557 47.6133 80.0623 48.2 77.9423 48.2C76.6223 48.2 75.4623 47.96 74.4623 47.48C73.4623 46.9867 72.689 46.3067 72.1423 45.44C71.5957 44.5733 71.3223 43.6 71.3223 42.52C71.3223 41.4267 71.589 40.4533 72.1223 39.6C72.669 38.7333 73.409 38.06 74.3423 37.58C75.289 37.1 76.349 36.86 77.5223 36.86C78.629 36.86 79.6357 37.08 80.5423 37.52C81.4623 37.96 82.189 38.6067 82.7223 39.46C83.269 40.3133 83.5423 41.3333 83.5423 42.52ZM77.5623 39.94C77.0957 39.94 76.709 40.0667 76.4023 40.32C76.0957 40.5733 75.8957 40.9333 75.8023 41.4H79.3223C79.229 40.9467 79.029 40.5933 78.7223 40.34C78.4157 40.0733 78.029 39.94 77.5623 39.94ZM89.5758 36.86C91.4958 36.86 92.9624 37.2933 93.9758 38.16C94.9891 39.0133 95.4958 40.3333 95.4958 42.12V48H91.2958V46.56C90.7758 47.6533 89.7424 48.2 88.1958 48.2C87.3291 48.2 86.5891 48.0533 85.9758 47.76C85.3758 47.4533 84.9158 47.0467 84.5958 46.54C84.2891 46.02 84.1358 45.44 84.1358 44.8C84.1358 43.72 84.5491 42.9 85.3758 42.34C86.2024 41.78 87.4558 41.5 89.1358 41.5H90.9558C90.8091 40.6467 90.1224 40.22 88.8958 40.22C88.4024 40.22 87.9024 40.3 87.3958 40.46C86.8891 40.6067 86.4558 40.8133 86.0958 41.08L84.6558 38.1C85.2824 37.7133 86.0358 37.4133 86.9158 37.2C87.8091 36.9733 88.6958 36.86 89.5758 36.86ZM89.5558 45.48C89.8758 45.48 90.1624 45.3933 90.4158 45.22C90.6691 45.0467 90.8558 44.7867 90.9758 44.44V43.68H89.8558C88.9358 43.68 88.4758 43.9867 88.4758 44.6C88.4758 44.8533 88.5691 45.0667 88.7558 45.24C88.9558 45.4 89.2224 45.48 89.5558 45.48ZM109.745 33.16V48H105.445V47.1C104.791 47.8333 103.791 48.2 102.445 48.2C101.485 48.2 100.598 47.9733 99.7845 47.52C98.9845 47.0533 98.3445 46.3867 97.8645 45.52C97.3979 44.6533 97.1645 43.6533 97.1645 42.52C97.1645 41.3867 97.3979 40.3933 97.8645 39.54C98.3445 38.6733 98.9845 38.0133 99.7845 37.56C100.598 37.0933 101.485 36.86 102.445 36.86C103.658 36.86 104.585 37.1733 105.225 37.8V33.16H109.745ZM103.525 44.68C104.045 44.68 104.471 44.4933 104.805 44.12C105.138 43.7333 105.305 43.2 105.305 42.52C105.305 41.84 105.138 41.3133 104.805 40.94C104.471 40.5667 104.045 40.38 103.525 40.38C103.005 40.38 102.578 40.5667 102.245 40.94C101.911 41.3133 101.745 41.84 101.745 42.52C101.745 43.2 101.911 43.7333 102.245 44.12C102.578 44.4933 103.005 44.68 103.525 44.68Z" fill="#85949E"/>
<defs>
<clipPath id="clip0_0_1">
<rect width="56" height="56" fill="white"/>
</clipPath>
</defs>
</svg>
